<?xml version="1.0" standalone="no"?>
<!DOCTYPE svg PUBLIC "-//W3C//DTD SVG 20010904//EN"
 "http://www.w3.org/TR/2001/REC-SVG-20010904/DTD/svg10.dtd">
<svg version="1.0" xmlns="http://www.w3.org/2000/svg"
 width="220.000000pt" height="220.000000pt" viewBox="0 0 220.000000 220.000000"
 preserveAspectRatio="xMidYMid meet">
<metadata>
Created by potrace 1.14, written by Peter Selinger 2001-2017
</metadata>
<g transform="translate(0.000000,220.000000) scale(0.100000,-0.100000)"
fill="#000000" stroke="none">
<path d="M95 2048 c-23 -57 -27 -158 -8 -222 18 -63 65 -138 107 -171 29 -23
30 -25 8 -25 -12 0 -48 9 -79 20 l-56 19 6 -50 c15 -126 130 -261 249 -293 37
-9 14 -17 -56 -18 -40 -1 -66 -6 -66 -12 0 -24 74 -123 115 -154 51 -39 132
-72 175 -72 28 0 36 -9 30 -35 -17 -90 -15 -293 4 -383 86 -398 398 -601 838
-548 167 21 391 142 515 280 81 90 162 226 188 314 l6 22 -138 0 -139 0 -18
-37 c-55 -118 -133 -197 -252 -257 -101 -52 -200 -75 -309 -72 -354 10 -509
323 -391 789 71 280 247 495 469 573 64 23 104 28 202 28 155 1 274 -56 347
-164 36 -54 43 -75 55 -155 3 -22 7 -42 9 -44 3 -3 200 -5 258 -2 17 1 18 7
12 75 -22 249 -164 429 -405 511 -275 93 -620 25 -855 -171 -26 -21 -52 -38
-57 -36 -5 1 -8 -4 -7 -10 4 -17 -40 -17 -127 -1 -206 38 -377 126 -524 270
-40 40 -77 73 -81 73 -4 0 -16 -19 -25 -42z"/>
</g>
</svg>
